<?xml version="1.0" encoding="UTF-8"?>
<svg id="Ebene_2" xmlns="http://www.w3.org/2000/svg" viewBox="0 0 165.45 222.62">
  <defs>
    <style>
      .cls-1 {
        fill: #5fffda;
      }

      .cls-2 {
        fill: #e719f2;
      }
    </style>
  </defs>
  <g id="Ebene_1-2" data-name="Ebene_1">
    <g>
      <path class="cls-1" d="M157.04,154.48c-6.9,16.78-20.97,35.1-55.44,44.43-3.11.84-14.43,3.84-23.77,13.54-3.67,3.81-6,7.59-7.38,10.17-2.09-3.31-5.65-8.22-11.19-12.83-15.73-13.1-26.47-8.48-42.27-18.7-.6-.39-1.17-.78-1.72-1.2C.86,179.19.16,160.12.1,159.34c-1.5-21.47,14.6-37.02,16.75-39.03,22.72-21.29,51.84-10.41,65.33-32.74,1.39-2.3,3.52-5.91,4.28-11.07,2.65-18.1-15.69-27.18-18.69-46.99-.95-6.29-.74-16.18,6.67-29.51,3.77,5.28,10.03,12.8,19.58,19.23,12.97,8.72,22.71,11.16,29.08,14,14.92,6.68,25.17,17.25,31.85,29.68,15.63,29.09,11.65,68.36,2.09,91.57Z"/>
      <path class="cls-2" d="M157.04,154.48c-6.9,16.78-20.97,35.1-55.44,44.43-3.11.84-14.43,3.84-23.77,13.54-3.67,3.81-6,7.59-7.38,10.17-3.06-13.98-3.36-25.47-2.23-34.87,1.3-10.77,4.83-18.85,6.4-22.25,15.69-33.98,59.84-29.91,76.52-60.47,4.26-7.8,8.36-20.84,3.81-42.12,15.63,29.09,11.65,68.36,2.09,91.57Z"/>
    </g>
  </g>
</svg>